<svg xmlns="http://www.w3.org/2000/svg" xmlns:xlink="http://www.w3.org/1999/xlink" width="775" height="757" viewBox="0 0 775 757">
  <defs>
    <rect id="graphic-background-top-a" width="1440" height="796" y="403"/>
    <linearGradient id="graphic-background-top-b" x1="88.234%" x2="0%" y1="56.02%" y2="37.243%">
      <stop offset="0%" stop-color="#FF3200" stop-opacity="0"/>
      <stop offset="100%" stop-color="#FF3200"/>
    </linearGradient>
    <linearGradient id="graphic-background-top-d" x1="75.496%" x2="7.734%" y1="76.689%" y2="13.151%">
      <stop offset="0%" stop-color="#FAD961" stop-opacity=".299"/>
      <stop offset="100%" stop-color="#FF3200"/>
    </linearGradient>
  </defs>
  <g fill="none" fill-rule="evenodd" transform="translate(-665.833 -403)">
    <mask id="graphic-background-top-c" fill="#fff">
      <use xlink:href="#graphic-background-top-a"/>
    </mask>
    <path fill="url(#graphic-background-top-b)" fill-rule="nonzero" d="M1031.44789,5.77107427 C1108.50637,22.1503604 1179.54238,68.4206892 1227.13488,122.187471 C1276.80112,178.312131 1368.76291,199.684135 1441.93667,229.320941 C1494.58476,250.650101 1548.09169,272.438313 1592.27249,305.221427 C1612.35239,320.125709 1630.72156,337.80007 1639.38841,358.721006 C1652.14862,389.544461 1641.98011,422.24095 1627.30269,450.62413 C1582.37021,537.499419 1531.49093,648.435058 1519.97472,744.461758 C1505.30968,866.744721 1428.73456,906.172842 1373.83916,906.172842 C1337.93791,906.172842 1212.34825,878.97354 1159.11823,938.023913 C1060.63797,1047.27235 914.347782,1009.75014 868.474466,980.257115 C816.985987,947.155755 785.123426,892.935161 786.424417,840.694467 C787.633669,795.8077 811.232393,755.219122 824.701436,712.532715 C838.170478,669.846308 824.701436,573.825374 753.845828,549.118556 C697.2404,529.380668 661.465,466.292142 666.416743,415.306712 C670.707195,370.374398 710.426039,335.110915 755.454405,312.68132 C766.969601,306.962881 779.279585,301.745183 792.922946,300.810988 C805.358755,299.93349 818.133233,302.740957 830.420808,306.108537 C859.701091,314.157177 888.260457,325.683993 918.376105,329.283369 C948.491754,332.882746 982.006021,326.549921 997.112128,305.668153 C1006.90769,292.1186 1007.42847,274.698975 1004.10021,258.341435 C997.419748,225.565963 976.896703,195.267629 958.422133,165.109774 C939.947562,134.951919 922.837597,102.614022 923.958371,69.9114682 C925.079145,37.2089145 949.989017,4.3830577 988.555863,0.930680414 C1002.72913,-0.333286317 1017.3507,2.35065329 1031.44789,5.77107427 Z" mask="url(#graphic-background-top-c)" opacity=".3"/>
    <path fill="url(#graphic-background-top-d)" fill-rule="nonzero" d="M1741.08145,803.173892 C1681.88847,862.36688 1599.54288,898.893897 1524.0842,910.190319 C1445.3241,921.970219 1417.78048,1023.81492 1358.96386,1083.45978 C1314.89941,1128.14472 1173.91938,1175.00876 1107.50154,1154.99198 C1073.39743,1144.71381 1016.60104,1106.23725 999.8011,1076.73089 C948.384329,986.410853 936.018975,868.63629 863.483829,795.776725 C831.714086,763.817738 787.542462,738.570568 780.723115,691.198819 C775.908625,657.727299 791.646019,620.557327 812.260823,588.45401 C832.875628,556.350693 858.622463,527.081437 878.289469,494.51695 C884.813617,483.711706 890.822737,472.202189 892.663629,460.525613 C895.741248,441.461621 887.832894,424.631739 881.075465,408.385048 C866.644482,373.494095 856.800628,336.887235 851.790757,299.48246 C848.338713,274.213224 846.996454,247.782546 853.584129,221.198357 C867.136907,166.704206 914.134988,117.782341 966.966673,93.9699875 C1026.26368,67.2418318 1093.02335,70.2260974 1138.82577,101.618896 C1178.12768,128.673982 1200.64166,173.194393 1230.88753,209.901617 C1261.13341,246.608842 1306.35309,277.256694 1359.02184,265.0416 C1379.00429,260.395228 1398.11411,249.901793 1417.5238,241.330325 C1475.99608,215.291408 1544.80002,206.937641 1587.37097,240.857418 C1624.93028,270.684736 1633.36945,326.489111 1627.29865,379.597782 C1625.73054,393.169227 1623.2562,407.159169 1616.19287,419.858374 C1609.77786,431.448632 1599.88293,441.208092 1589.77062,450.209482 C1565.65246,471.645185 1538.85187,490.425493 1518.2153,515.180582 C1497.57873,539.935671 1483.82656,573.467595 1493.69337,599.014667 C1500.09931,615.585747 1515.32177,626.131158 1531.82529,632.631756 C1564.90002,645.646559 1603.77834,644.89167 1641.34596,645.88102 C1678.91357,646.870369 1717.63423,650.337477 1746.12914,670.262312 C1774.62405,690.187147 1789.46132,731.383474 1770.21808,767.751097 C1763.14196,781.113386 1752.28813,792.590412 1741.08145,803.173892 Z" mask="url(#graphic-background-top-c)" opacity=".2"/>
  </g>
</svg>
